<?xml version="1.0" encoding="UTF-8" standalone="no"?>
<!DOCTYPE svg PUBLIC "-//W3C//DTD SVG 1.1//EN" "http://www.w3.org/Graphics/SVG/1.1/DTD/svg11.dtd">
<svg width="100%" height="100%" viewBox="0 0 610 145" version="1.1" xmlns="http://www.w3.org/2000/svg" xmlns:xlink="http://www.w3.org/1999/xlink" xml:space="preserve" xmlns:serif="http://www.serif.com/" style="fill-rule:evenodd;clip-rule:evenodd;stroke-linejoin:round;stroke-miterlimit:2;">
    <g transform="matrix(1,0,0,1,-1763.15,-2635.67)">
        <g>
            <g transform="matrix(0.24876,0,0,0.20228,1526.6,2468.17)">
                <rect x="1103.11" y="910.049" width="19.729" height="296.739" style="fill:rgb(56,78,119);"/>
            </g>
            <g transform="matrix(-0.24876,0,0,0.24876,2037.58,2403.73)">
                <path d="M931.313,932.514L997.637,1065.71C971.701,1062.95 960.515,1052.39 931.25,1051.4C931.25,1017.62 931.219,956.769 931.241,932.389L931.313,932.514Z" style="fill:rgb(56,78,119);"/>
            </g>
            <g transform="matrix(0.24876,0,0,0.24876,1531.51,2412.08)">
                <path d="M931.216,932.389L997.637,1065.71C987.197,1063.18 976.607,1063.11 965.853,1065.71C1053.64,1213.03 1277.96,1219.12 1275,1481.19C1217.73,1252.78 928.067,1306.26 931.206,938.833C931.17,936.586 931.172,934.434 931.216,932.389Z" style="fill:rgb(56,78,119);"/>
            </g>
            <g transform="matrix(0.24876,0,0,0.20228,1531.51,2468.17)">
                <rect x="1103.11" y="910.049" width="19.729" height="296.739" style="fill:rgb(139,190,178);"/>
            </g>
            <g transform="matrix(0.24876,0,0,0.24876,1574.27,2403.73)">
                <path d="M931.313,932.514L997.637,1065.71C971.701,1062.95 960.515,1052.39 931.25,1051.4C930.59,1017.62 929.764,956.765 931.241,932.389L931.313,932.514Z" style="fill:rgb(139,190,178);"/>
            </g>
            <g transform="matrix(0.24876,0,0,0.24876,1531.5,2412.08)">
                <path d="M931.313,932.514L997.637,1065.71C987.197,1063.18 976.607,1063.11 965.853,1065.71C948.765,1033.43 933.346,955.54 931.25,932.389L931.313,932.514Z" style="fill:rgb(139,190,178);"/>
            </g>
            <g transform="matrix(-0.24876,0,0,0.24876,2080.33,2412.08)">
                <path d="M931.216,932.389L997.637,1065.71C987.197,1063.18 976.607,1063.11 965.853,1065.71C1053.64,1213.03 1277.96,1219.12 1275,1481.19C1217.73,1252.78 928.067,1306.26 931.206,938.833C931.17,936.586 931.172,934.434 931.216,932.389Z" style="fill:rgb(139,190,178);"/>
            </g>
            <g transform="matrix(-0.24876,0,0,0.24876,2080.34,2412.08)">
                <path d="M931.313,932.514L997.637,1065.71C987.197,1063.18 976.607,1063.11 965.853,1065.71C948.765,1033.43 933.346,955.54 931.25,932.389L931.313,932.514Z" style="fill:rgb(56,78,119);"/>
            </g>
            <g transform="matrix(110.823,0,0,110.823,1880.43,2720.45)">
                <path d="M0.045,-0.736L0.541,-0.736L0.541,-0.596L0.362,-0.596L0.355,-0.079L0.209,0.115L0.217,-0.596L0.045,-0.596L0.045,-0.736Z" style="fill:rgb(56,78,119);fill-rule:nonzero;"/>
            </g>
            <g transform="matrix(110.823,0,0,110.823,1945.38,2720.45)">
                <path d="M0.318,-0.736C0.364,-0.736 0.405,-0.73 0.441,-0.719C0.477,-0.707 0.507,-0.69 0.532,-0.669C0.556,-0.647 0.574,-0.621 0.587,-0.591C0.6,-0.56 0.606,-0.526 0.606,-0.488C0.606,-0.458 0.602,-0.428 0.593,-0.398C0.584,-0.368 0.569,-0.341 0.549,-0.316C0.528,-0.291 0.501,-0.272 0.468,-0.257C0.435,-0.242 0.393,-0.234 0.344,-0.234L0.24,-0.234L0.24,0L0.095,0L0.095,-0.736L0.318,-0.736ZM0.343,-0.374C0.365,-0.374 0.383,-0.378 0.398,-0.385C0.413,-0.392 0.424,-0.402 0.433,-0.413C0.441,-0.424 0.447,-0.436 0.451,-0.449C0.454,-0.461 0.456,-0.472 0.456,-0.483C0.456,-0.491 0.455,-0.501 0.453,-0.514C0.45,-0.526 0.445,-0.538 0.438,-0.551C0.431,-0.564 0.42,-0.574 0.405,-0.583C0.39,-0.592 0.369,-0.596 0.344,-0.596L0.24,-0.596L0.24,-0.374L0.343,-0.374ZM0.479,-0.284L0.661,0L0.492,0L0.306,-0.28L0.479,-0.284Z" style="fill:rgb(56,78,119);fill-rule:nonzero;"/>
            </g>
            <g transform="matrix(110.823,0,0,110.823,2021.4,2720.45)">
                <rect x="0.095" y="-0.736" width="0.145" height="0.736" style="fill:rgb(56,78,119);fill-rule:nonzero;"/>
            </g>
            <g transform="matrix(110.823,0,0,110.823,2058.53,2720.45)">
                <path d="M0.095,0L0.095,-0.736L0.315,-0.736C0.389,-0.736 0.452,-0.725 0.504,-0.703C0.556,-0.681 0.598,-0.652 0.63,-0.615C0.661,-0.578 0.684,-0.537 0.699,-0.492C0.714,-0.447 0.721,-0.401 0.721,-0.355C0.721,-0.3 0.711,-0.251 0.692,-0.208C0.672,-0.164 0.645,-0.127 0.611,-0.096C0.577,-0.065 0.538,-0.041 0.493,-0.025C0.448,-0.008 0.401,0 0.351,0L0.095,0ZM0.24,-0.14L0.326,-0.14C0.363,-0.14 0.396,-0.145 0.426,-0.155C0.456,-0.164 0.482,-0.178 0.504,-0.197C0.525,-0.216 0.542,-0.239 0.554,-0.268C0.565,-0.296 0.571,-0.328 0.571,-0.365C0.571,-0.413 0.563,-0.452 0.548,-0.483C0.532,-0.513 0.513,-0.536 0.49,-0.553C0.466,-0.57 0.443,-0.581 0.419,-0.588C0.395,-0.594 0.375,-0.597 0.358,-0.597L0.24,-0.597L0.24,-0.14Z" style="fill:rgb(56,78,119);fill-rule:nonzero;"/>
            </g>
            <g transform="matrix(110.823,0,0,110.823,2143.97,2720.45)">
                <path d="M0.095,-0.736L0.597,-0.736L0.597,-0.596L0.24,-0.596L0.24,-0.439L0.556,-0.439L0.556,-0.299L0.24,-0.299L0.24,-0.14L0.611,-0.14L0.611,0L0.095,0L0.095,-0.736Z" style="fill:rgb(56,78,119);fill-rule:nonzero;"/>
            </g>
            <g transform="matrix(110.823,0,0,110.823,2217.78,2720.45)">
                <path d="M0.754,0.03L0.196,-0.474L0.239,-0.45L0.242,0L0.095,0L0.095,-0.765L0.101,-0.765L0.647,-0.263L0.615,-0.277L0.612,-0.736L0.758,-0.736L0.758,0.03L0.754,0.03Z" style="fill:rgb(56,78,119);fill-rule:nonzero;"/>
            </g>
            <g transform="matrix(110.823,0,0,110.823,2312.31,2720.45)">
                <path d="M0.045,-0.736L0.541,-0.736L0.541,-0.596L0.362,-0.596L0.362,0.115L0.217,-0.079L0.217,-0.596L0.045,-0.596L0.045,-0.736Z" style="fill:rgb(56,78,119);fill-rule:nonzero;"/>
            </g>
            <g transform="matrix(0.298498,0,0,0.298498,1481.62,2460.45)">
                <text x="1451.77px" y="1067.31px" style="font-family:'JosefinSans-Medium', 'Josefin Sans';font-weight:500;font-size:200px;fill:rgb(139,190,178);">B<tspan x="1596.57px 1678.77px 1869.97px 2006.37px 2165.37px 2247.57px 2398.57px 2586.77px 2745.77px " y="1067.31px 1067.31px 1067.31px 1067.31px 1067.31px 1067.31px 1067.31px 1067.31px 1067.31px ">IOSCIENCE</tspan></text>
            </g>
        </g>
    </g>
</svg>
