<?xml version="1.0" encoding="UTF-8" standalone="no"?>
<!DOCTYPE svg PUBLIC "-//W3C//DTD SVG 1.1//EN" "http://www.w3.org/Graphics/SVG/1.1/DTD/svg11.dtd">
<svg width="100%" height="100%" viewBox="0 0 610 145" version="1.1" xmlns="http://www.w3.org/2000/svg" xmlns:xlink="http://www.w3.org/1999/xlink" xml:space="preserve" xmlns:serif="http://www.serif.com/" style="fill-rule:evenodd;clip-rule:evenodd;stroke-linejoin:round;stroke-miterlimit:2;">
    <g transform="matrix(1,0,0,1,-655.443,-467.567)">
        <g transform="matrix(1,0,0,1,-1107.71,-2168.1)">
            <g transform="matrix(0.24876,0,0,0.20228,1526.6,2468.17)">
                <rect x="1103.11" y="910.049" width="19.729" height="296.739" style="fill:rgb(56,78,119);"/>
            </g>
        </g>
        <g transform="matrix(1,0,0,1,-1107.71,-2168.1)">
            <g transform="matrix(-0.24876,0,0,0.24876,2037.58,2403.73)">
                <path d="M931.313,932.514L997.637,1065.71C971.701,1062.95 960.515,1052.39 931.25,1051.4C931.25,1017.62 931.219,956.769 931.241,932.389L931.313,932.514Z" style="fill:rgb(56,78,119);"/>
            </g>
        </g>
        <g transform="matrix(1,0,0,1,-1107.71,-2168.1)">
            <g transform="matrix(0.24876,0,0,0.24876,1531.51,2412.08)">
                <path d="M931.294,932.547C931.294,932.547 976.607,1063.11 965.853,1065.71C1053.64,1213.03 1277.96,1219.12 1275,1481.19C1217.73,1252.78 928.067,1306.26 931.206,938.833C931.17,936.586 931.172,934.434 931.216,932.389L931.294,932.547Z" style="fill:rgb(56,78,119);"/>
            </g>
        </g>
        <g transform="matrix(1,0,0,1,-1107.71,-2168.1)">
            <g transform="matrix(0.24876,0,0,0.20228,1531.51,2468.17)">
                <rect x="1103.11" y="910.049" width="19.729" height="296.739" style="fill:rgb(139,190,178);"/>
            </g>
        </g>
        <g transform="matrix(1,0,0,1,-1107.71,-2168.1)">
            <g transform="matrix(0.24876,0,0,0.24876,1574.27,2403.73)">
                <path d="M931.313,932.514L997.637,1065.71C971.701,1062.95 960.515,1052.39 931.25,1051.4C930.59,1017.62 929.764,956.765 931.241,932.389L931.313,932.514Z" style="fill:rgb(139,190,178);"/>
            </g>
        </g>
        <g transform="matrix(1,0,0,1,-1107.71,-2168.1)">
            <g transform="matrix(0.24876,0,0,0.24876,1531.5,2412.08)">
                <path d="M931.313,932.514L997.637,1065.71C987.197,1063.18 976.607,1063.11 965.853,1065.71C948.765,1033.43 933.346,955.54 931.25,932.389L931.313,932.514Z" style="fill:rgb(139,190,178);"/>
            </g>
        </g>
        <g transform="matrix(1,0,0,1,-1107.71,-2168.1)">
            <g transform="matrix(-0.24876,0,0,0.24876,2080.33,2412.08)">
                <path d="M931.294,932.547C931.294,932.547 976.607,1063.11 965.853,1065.71C1053.64,1213.03 1277.96,1219.12 1275,1481.19C1217.73,1252.78 928.067,1306.26 931.206,938.833C931.17,936.586 931.172,934.434 931.216,932.389L931.294,932.547Z" style="fill:rgb(139,190,178);"/>
            </g>
        </g>
        <g transform="matrix(1,0,0,1,-1107.71,-2168.1)">
            <g transform="matrix(-0.24876,0,0,0.24876,2080.34,2412.08)">
                <path d="M931.313,932.514L997.637,1065.71C987.197,1063.18 976.607,1063.11 965.853,1065.71C948.765,1033.43 933.346,955.54 931.25,932.389L931.313,932.514Z" style="fill:rgb(56,78,119);"/>
            </g>
        </g>
        <g transform="matrix(1,0,0,1,-1107.71,-2168.1)">
            <g transform="matrix(110.823,0,0,110.823,1880.43,2720.45)">
                <path d="M0.045,-0.736L0.541,-0.736L0.541,-0.596L0.362,-0.596L0.355,-0.079L0.209,0.115L0.217,-0.596L0.045,-0.596L0.045,-0.736Z" style="fill:rgb(56,78,119);fill-rule:nonzero;"/>
            </g>
            <g transform="matrix(110.823,0,0,110.823,1945.38,2720.45)">
                <path d="M0.318,-0.736C0.364,-0.736 0.405,-0.73 0.441,-0.719C0.477,-0.707 0.507,-0.69 0.532,-0.669C0.556,-0.647 0.574,-0.621 0.587,-0.591C0.6,-0.56 0.606,-0.526 0.606,-0.488C0.606,-0.458 0.602,-0.428 0.593,-0.398C0.584,-0.368 0.569,-0.341 0.549,-0.316C0.528,-0.291 0.501,-0.272 0.468,-0.257C0.435,-0.242 0.393,-0.234 0.344,-0.234L0.24,-0.234L0.24,0L0.095,0L0.095,-0.736L0.318,-0.736ZM0.343,-0.374C0.365,-0.374 0.383,-0.378 0.398,-0.385C0.413,-0.392 0.424,-0.402 0.433,-0.413C0.441,-0.424 0.447,-0.436 0.451,-0.449C0.454,-0.461 0.456,-0.472 0.456,-0.483C0.456,-0.491 0.455,-0.501 0.453,-0.514C0.45,-0.526 0.445,-0.538 0.438,-0.551C0.431,-0.564 0.42,-0.574 0.405,-0.583C0.39,-0.592 0.369,-0.596 0.344,-0.596L0.24,-0.596L0.24,-0.374L0.343,-0.374ZM0.479,-0.284L0.661,0L0.492,0L0.306,-0.28L0.479,-0.284Z" style="fill:rgb(56,78,119);fill-rule:nonzero;"/>
            </g>
            <g transform="matrix(110.823,0,0,110.823,2021.4,2720.45)">
                <rect x="0.095" y="-0.736" width="0.145" height="0.736" style="fill:rgb(56,78,119);fill-rule:nonzero;"/>
            </g>
            <g transform="matrix(110.823,0,0,110.823,2058.53,2720.45)">
                <path d="M0.095,0L0.095,-0.736L0.315,-0.736C0.389,-0.736 0.452,-0.725 0.504,-0.703C0.556,-0.681 0.598,-0.652 0.63,-0.615C0.661,-0.578 0.684,-0.537 0.699,-0.492C0.714,-0.447 0.721,-0.401 0.721,-0.355C0.721,-0.3 0.711,-0.251 0.692,-0.208C0.672,-0.164 0.645,-0.127 0.611,-0.096C0.577,-0.065 0.538,-0.041 0.493,-0.025C0.448,-0.008 0.401,0 0.351,0L0.095,0ZM0.24,-0.14L0.326,-0.14C0.363,-0.14 0.396,-0.145 0.426,-0.155C0.456,-0.164 0.482,-0.178 0.504,-0.197C0.525,-0.216 0.542,-0.239 0.554,-0.268C0.565,-0.296 0.571,-0.328 0.571,-0.365C0.571,-0.413 0.563,-0.452 0.548,-0.483C0.532,-0.513 0.513,-0.536 0.49,-0.553C0.466,-0.57 0.443,-0.581 0.419,-0.588C0.395,-0.594 0.375,-0.597 0.358,-0.597L0.24,-0.597L0.24,-0.14Z" style="fill:rgb(56,78,119);fill-rule:nonzero;"/>
            </g>
            <g transform="matrix(110.823,0,0,110.823,2143.97,2720.45)">
                <path d="M0.095,-0.736L0.597,-0.736L0.597,-0.596L0.24,-0.596L0.24,-0.439L0.556,-0.439L0.556,-0.299L0.24,-0.299L0.24,-0.14L0.611,-0.14L0.611,0L0.095,0L0.095,-0.736Z" style="fill:rgb(56,78,119);fill-rule:nonzero;"/>
            </g>
            <g transform="matrix(110.823,0,0,110.823,2217.78,2720.45)">
                <path d="M0.754,0.03L0.196,-0.474L0.239,-0.45L0.242,0L0.095,0L0.095,-0.765L0.101,-0.765L0.647,-0.263L0.615,-0.277L0.612,-0.736L0.758,-0.736L0.758,0.03L0.754,0.03Z" style="fill:rgb(56,78,119);fill-rule:nonzero;"/>
            </g>
            <g transform="matrix(110.823,0,0,110.823,2312.31,2720.45)">
                <path d="M0.045,-0.736L0.541,-0.736L0.541,-0.596L0.362,-0.596L0.362,0.115L0.217,-0.079L0.217,-0.596L0.045,-0.596L0.045,-0.736Z" style="fill:rgb(56,78,119);fill-rule:nonzero;"/>
            </g>
        </g>
        <g transform="matrix(1,0,0,1,-1107.71,-2168.1)">
            <g transform="matrix(0.298498,0,0,0.298498,1481.62,2460.45)">
                <g transform="matrix(200,0,0,200,1451.77,1067.31)">
                    <path d="M0.295,-0.726C0.368,-0.726 0.426,-0.711 0.469,-0.681C0.511,-0.651 0.532,-0.605 0.532,-0.543C0.532,-0.503 0.523,-0.469 0.505,-0.44C0.486,-0.411 0.461,-0.389 0.429,-0.374C0.396,-0.358 0.358,-0.349 0.314,-0.347L0.298,-0.404C0.349,-0.403 0.395,-0.394 0.436,-0.378C0.476,-0.361 0.508,-0.338 0.532,-0.31C0.555,-0.281 0.567,-0.246 0.567,-0.206C0.567,-0.169 0.56,-0.138 0.547,-0.112C0.533,-0.085 0.515,-0.064 0.492,-0.048C0.468,-0.031 0.443,-0.019 0.414,-0.012C0.385,-0.004 0.354,0 0.323,0L0.102,0L0.102,-0.726L0.295,-0.726ZM0.314,-0.412C0.351,-0.412 0.379,-0.423 0.396,-0.444C0.413,-0.465 0.422,-0.491 0.422,-0.52C0.422,-0.556 0.411,-0.582 0.389,-0.599C0.366,-0.615 0.337,-0.623 0.3,-0.623L0.209,-0.623L0.209,-0.412L0.314,-0.412ZM0.318,-0.099C0.344,-0.099 0.368,-0.103 0.389,-0.111C0.409,-0.118 0.426,-0.13 0.439,-0.146C0.451,-0.161 0.457,-0.181 0.457,-0.205C0.457,-0.232 0.45,-0.253 0.436,-0.268C0.421,-0.282 0.403,-0.293 0.381,-0.3C0.358,-0.306 0.335,-0.309 0.311,-0.309L0.209,-0.309L0.209,-0.099L0.318,-0.099Z" style="fill:rgb(139,190,178);fill-rule:nonzero;"/>
                </g>
                <g transform="matrix(200,0,0,200,1596.57,1067.31)">
                    <rect x="0.102" y="-0.726" width="0.107" height="0.726" style="fill:rgb(139,190,178);fill-rule:nonzero;"/>
                </g>
                <g transform="matrix(200,0,0,200,1678.77,1067.31)">
                    <path d="M0.057,-0.362C0.057,-0.412 0.067,-0.459 0.086,-0.504C0.105,-0.549 0.131,-0.588 0.165,-0.623C0.199,-0.658 0.238,-0.685 0.283,-0.705C0.328,-0.724 0.376,-0.734 0.427,-0.734C0.478,-0.734 0.525,-0.724 0.57,-0.705C0.615,-0.685 0.654,-0.658 0.689,-0.623C0.724,-0.588 0.751,-0.549 0.77,-0.504C0.789,-0.459 0.799,-0.412 0.799,-0.362C0.799,-0.311 0.789,-0.263 0.77,-0.218C0.751,-0.173 0.724,-0.134 0.69,-0.1C0.655,-0.066 0.616,-0.04 0.571,-0.021C0.526,-0.002 0.478,0.008 0.427,0.008C0.376,0.008 0.328,-0.001 0.283,-0.02C0.238,-0.039 0.199,-0.065 0.165,-0.099C0.131,-0.132 0.105,-0.171 0.086,-0.217C0.067,-0.262 0.057,-0.31 0.057,-0.362ZM0.167,-0.362C0.167,-0.325 0.174,-0.29 0.188,-0.258C0.201,-0.225 0.22,-0.197 0.244,-0.173C0.268,-0.148 0.296,-0.129 0.328,-0.116C0.359,-0.102 0.393,-0.095 0.43,-0.095C0.466,-0.095 0.5,-0.102 0.531,-0.116C0.562,-0.129 0.59,-0.148 0.614,-0.173C0.637,-0.197 0.656,-0.225 0.669,-0.258C0.682,-0.29 0.689,-0.325 0.689,-0.362C0.689,-0.399 0.682,-0.434 0.669,-0.467C0.655,-0.499 0.636,-0.527 0.613,-0.552C0.589,-0.577 0.561,-0.596 0.53,-0.61C0.498,-0.624 0.464,-0.631 0.428,-0.631C0.391,-0.631 0.356,-0.624 0.325,-0.61C0.294,-0.596 0.266,-0.577 0.242,-0.552C0.218,-0.527 0.2,-0.499 0.187,-0.466C0.173,-0.433 0.167,-0.399 0.167,-0.362Z" style="fill:rgb(139,190,178);fill-rule:nonzero;"/>
                </g>
                <g transform="matrix(200,0,0,200,1869.97,1067.31)">
                    <path d="M0.48,-0.587C0.455,-0.6 0.427,-0.612 0.398,-0.621C0.369,-0.63 0.34,-0.635 0.313,-0.635C0.276,-0.635 0.246,-0.627 0.224,-0.61C0.202,-0.592 0.191,-0.569 0.191,-0.54C0.191,-0.519 0.198,-0.501 0.213,-0.486C0.228,-0.471 0.247,-0.457 0.27,-0.446C0.293,-0.435 0.318,-0.424 0.344,-0.414C0.366,-0.406 0.388,-0.397 0.41,-0.386C0.431,-0.375 0.451,-0.361 0.469,-0.345C0.486,-0.329 0.5,-0.309 0.511,-0.286C0.521,-0.262 0.526,-0.233 0.526,-0.199C0.526,-0.16 0.517,-0.125 0.498,-0.094C0.478,-0.063 0.451,-0.038 0.416,-0.02C0.38,-0.001 0.337,0.008 0.286,0.008C0.255,0.008 0.226,0.005 0.197,-0.003C0.167,-0.01 0.14,-0.019 0.115,-0.031C0.089,-0.042 0.066,-0.055 0.045,-0.069L0.093,-0.152C0.109,-0.141 0.127,-0.13 0.148,-0.12C0.169,-0.109 0.19,-0.101 0.213,-0.095C0.235,-0.089 0.256,-0.086 0.276,-0.086C0.298,-0.086 0.32,-0.09 0.341,-0.098C0.362,-0.105 0.38,-0.117 0.394,-0.134C0.408,-0.15 0.415,-0.171 0.415,-0.198C0.415,-0.221 0.409,-0.24 0.397,-0.256C0.384,-0.271 0.368,-0.285 0.348,-0.296C0.327,-0.307 0.305,-0.317 0.282,-0.326C0.259,-0.335 0.236,-0.344 0.213,-0.355C0.19,-0.366 0.168,-0.379 0.148,-0.394C0.128,-0.409 0.112,-0.427 0.1,-0.45C0.087,-0.472 0.081,-0.499 0.081,-0.532C0.081,-0.571 0.09,-0.604 0.109,-0.634C0.127,-0.663 0.152,-0.685 0.185,-0.702C0.218,-0.719 0.255,-0.728 0.298,-0.73C0.347,-0.73 0.389,-0.724 0.425,-0.712C0.461,-0.7 0.493,-0.686 0.521,-0.669L0.48,-0.587Z" style="fill:rgb(139,190,178);fill-rule:nonzero;"/>
                </g>
                <g transform="matrix(200,0,0,200,2006.37,1067.31)">
                    <path d="M0.637,-0.055C0.626,-0.048 0.611,-0.039 0.59,-0.029C0.569,-0.018 0.544,-0.009 0.516,-0.002C0.487,0.005 0.456,0.009 0.422,0.008C0.365,0.007 0.315,-0.003 0.27,-0.022C0.225,-0.041 0.186,-0.068 0.155,-0.102C0.124,-0.135 0.099,-0.174 0.083,-0.218C0.066,-0.261 0.057,-0.308 0.057,-0.357C0.057,-0.412 0.066,-0.462 0.083,-0.508C0.1,-0.553 0.125,-0.593 0.158,-0.627C0.19,-0.661 0.228,-0.687 0.272,-0.706C0.315,-0.725 0.363,-0.734 0.415,-0.734C0.46,-0.734 0.5,-0.728 0.536,-0.716C0.572,-0.704 0.602,-0.69 0.627,-0.674L0.585,-0.574C0.566,-0.587 0.542,-0.6 0.514,-0.613C0.485,-0.625 0.454,-0.631 0.419,-0.631C0.385,-0.631 0.353,-0.624 0.323,-0.611C0.292,-0.597 0.266,-0.578 0.243,-0.554C0.22,-0.529 0.201,-0.501 0.188,-0.469C0.175,-0.436 0.168,-0.401 0.168,-0.363C0.168,-0.324 0.174,-0.289 0.186,-0.256C0.198,-0.223 0.215,-0.195 0.238,-0.171C0.26,-0.147 0.287,-0.128 0.318,-0.115C0.349,-0.102 0.385,-0.095 0.424,-0.095C0.461,-0.095 0.494,-0.101 0.523,-0.112C0.551,-0.123 0.574,-0.136 0.592,-0.151L0.637,-0.055Z" style="fill:rgb(139,190,178);fill-rule:nonzero;"/>
                </g>
                <g transform="matrix(200,0,0,200,2165.37,1067.31)">
                    <rect x="0.102" y="-0.726" width="0.107" height="0.726" style="fill:rgb(139,190,178);fill-rule:nonzero;"/>
                </g>
                <g transform="matrix(200,0,0,200,2247.57,1067.31)">
                    <path d="M0.102,-0.726L0.579,-0.726L0.579,-0.623L0.209,-0.623L0.209,-0.416L0.538,-0.416L0.538,-0.313L0.209,-0.313L0.209,-0.103L0.593,-0.103L0.593,0L0.102,0L0.102,-0.726Z" style="fill:rgb(139,190,178);fill-rule:nonzero;"/>
                </g>
                <g transform="matrix(200,0,0,200,2398.57,1067.31)">
                    <path d="M0.735,0.025L0.176,-0.53L0.207,-0.52L0.21,0L0.102,0L0.102,-0.749L0.107,-0.749L0.659,-0.193L0.634,-0.2L0.632,-0.726L0.738,-0.726L0.738,0.025L0.735,0.025Z" style="fill:rgb(139,190,178);fill-rule:nonzero;"/>
                </g>
                <g transform="matrix(200,0,0,200,2586.77,1067.31)">
                    <path d="M0.637,-0.055C0.626,-0.048 0.611,-0.039 0.59,-0.029C0.569,-0.018 0.544,-0.009 0.516,-0.002C0.487,0.005 0.456,0.009 0.422,0.008C0.365,0.007 0.315,-0.003 0.27,-0.022C0.225,-0.041 0.186,-0.068 0.155,-0.102C0.124,-0.135 0.099,-0.174 0.083,-0.218C0.066,-0.261 0.057,-0.308 0.057,-0.357C0.057,-0.412 0.066,-0.462 0.083,-0.508C0.1,-0.553 0.125,-0.593 0.158,-0.627C0.19,-0.661 0.228,-0.687 0.272,-0.706C0.315,-0.725 0.363,-0.734 0.415,-0.734C0.46,-0.734 0.5,-0.728 0.536,-0.716C0.572,-0.704 0.602,-0.69 0.627,-0.674L0.585,-0.574C0.566,-0.587 0.542,-0.6 0.514,-0.613C0.485,-0.625 0.454,-0.631 0.419,-0.631C0.385,-0.631 0.353,-0.624 0.323,-0.611C0.292,-0.597 0.266,-0.578 0.243,-0.554C0.22,-0.529 0.201,-0.501 0.188,-0.469C0.175,-0.436 0.168,-0.401 0.168,-0.363C0.168,-0.324 0.174,-0.289 0.186,-0.256C0.198,-0.223 0.215,-0.195 0.238,-0.171C0.26,-0.147 0.287,-0.128 0.318,-0.115C0.349,-0.102 0.385,-0.095 0.424,-0.095C0.461,-0.095 0.494,-0.101 0.523,-0.112C0.551,-0.123 0.574,-0.136 0.592,-0.151L0.637,-0.055Z" style="fill:rgb(139,190,178);fill-rule:nonzero;"/>
                </g>
                <g transform="matrix(200,0,0,200,2745.77,1067.31)">
                    <path d="M0.102,-0.726L0.579,-0.726L0.579,-0.623L0.209,-0.623L0.209,-0.416L0.538,-0.416L0.538,-0.313L0.209,-0.313L0.209,-0.103L0.593,-0.103L0.593,0L0.102,0L0.102,-0.726Z" style="fill:rgb(139,190,178);fill-rule:nonzero;"/>
                </g>
            </g>
        </g>
    </g>
</svg>
