<?xml version="1.0" encoding="UTF-8" standalone="no"?>
<!DOCTYPE svg PUBLIC "-//W3C//DTD SVG 1.1//EN" "http://www.w3.org/Graphics/SVG/1.1/DTD/svg11.dtd">
<svg width="100%" height="100%" viewBox="0 0 800 310" version="1.1" xmlns="http://www.w3.org/2000/svg" xmlns:xlink="http://www.w3.org/1999/xlink" xml:space="preserve" xmlns:serif="http://www.serif.com/" style="fill-rule:evenodd;clip-rule:evenodd;stroke-linejoin:round;stroke-miterlimit:2;">
    <g transform="matrix(1,0,0,1,0,-145.13)">
        <g transform="matrix(1,0,0,0.802748,0,58.0751)">
            <path d="M800,204.909C800,151.67 765.303,108.446 722.565,108.446L77.435,108.446C34.697,108.446 0,151.67 0,204.909L0,397.833C0,451.072 34.697,494.295 77.435,494.295L722.565,494.295C765.303,494.295 800,451.072 800,397.833L800,204.909Z" style="fill:rgb(251,251,251);"/>
        </g>
        <g transform="matrix(5.68463,0,0,5.68463,643.045,300)">
            <g transform="matrix(1,0,0,1,-22,-25.5)">
                <g id="Canvas" transform="matrix(1,0,0,1,-1640,-2453)">
                    <g id="Group">
                        <g id="Group1" serif:id="Group">
                            <g id="Group2" serif:id="Group">
                                <g id="g">
                                    <g transform="matrix(1,0,0,1,1640.54,2474.36)">
                                        <g id="path">
                                            <g id="path9-fill" serif:id="path9 fill">
                                                <path id="path0_fill" d="M1.745,5.475C1.745,7.033 1.62,7.541 1.3,7.915C0.943,8.236 0.48,8.414 0,8.413L0.125,9.304C0.869,9.314 1.591,9.051 2.155,8.565C2.458,8.195 2.683,7.768 2.818,7.309C2.953,6.85 2.993,6.369 2.938,5.894L2.938,0L1.745,0L1.745,5.475Z" style="fill:rgb(78,78,78);fill-rule:nonzero;"/>
                                            </g>
                                        </g>
                                    </g>
                                    <g transform="matrix(1,0,0,1,1645.68,2474.37)">
                                        <g id="path1" serif:id="path">
                                            <g id="path10-fill" serif:id="path10 fill">
                                                <path id="path1_fill" d="M5.502,4.763C5.502,5.431 5.502,6.027 5.555,6.544L4.496,6.544L4.425,5.484C4.203,5.859 3.886,6.169 3.506,6.381C3.126,6.594 2.697,6.702 2.261,6.695C1.229,6.695 0,6.134 0,3.846L0,0.045L1.193,0.045L1.193,3.606C1.193,4.843 1.576,5.671 2.653,5.671C2.875,5.674 3.095,5.632 3.3,5.548C3.505,5.464 3.691,5.34 3.848,5.184C4.005,5.027 4.129,4.84 4.213,4.635C4.296,4.43 4.338,4.21 4.336,3.989L4.336,0L5.529,0L5.529,4.727L5.502,4.763Z" style="fill:rgb(78,78,78);fill-rule:nonzero;"/>
                                            </g>
                                        </g>
                                    </g>
                                    <g transform="matrix(1,0,0,1,1653.39,2474.26)">
                                        <g id="path2" serif:id="path">
                                            <g id="path11-fill" serif:id="path11 fill">
                                                <path id="path2_fill" d="M0.053,2.273C0.053,1.445 0.053,0.768 0,0.154L1.068,0.154L1.122,1.267C1.36,0.865 1.702,0.535 2.113,0.312C2.524,0.089 2.988,-0.018 3.454,0.002C5.039,0.002 6.232,1.329 6.232,3.305C6.232,5.638 4.799,6.795 3.25,6.795C2.853,6.813 2.459,6.728 2.105,6.549C1.751,6.369 1.449,6.102 1.229,5.772L1.229,9.333L0.053,9.333L0.053,2.273ZM1.229,4.009C1.232,4.17 1.25,4.331 1.282,4.489C1.383,4.885 1.613,5.235 1.935,5.485C2.258,5.735 2.655,5.87 3.063,5.869C4.318,5.869 5.057,4.846 5.057,3.359C5.057,2.059 4.362,0.946 3.107,0.946C2.61,0.987 2.145,1.207 1.8,1.566C1.454,1.925 1.251,2.398 1.229,2.896L1.229,4.009Z" style="fill:rgb(78,78,78);fill-rule:nonzero;"/>
                                            </g>
                                        </g>
                                    </g>
                                    <g transform="matrix(1,0,0,1,1660.43,2474.39)">
                                        <g id="path3" serif:id="path">
                                            <g id="path12-fill" serif:id="path12 fill">
                                                <path id="path3_fill" d="M1.318,0.018L2.751,3.855C2.902,4.282 3.063,4.799 3.169,5.182C3.294,4.79 3.428,4.291 3.588,3.828L4.888,0.018L6.143,0.018L4.362,4.647C3.472,6.873 2.929,8.022 2.11,8.716C1.697,9.093 1.194,9.357 0.65,9.482L0.356,8.485C0.737,8.359 1.09,8.163 1.398,7.906C1.832,7.552 2.177,7.1 2.404,6.588C2.452,6.499 2.486,6.403 2.502,6.303C2.492,6.196 2.465,6.091 2.422,5.992L0,0L1.3,0L1.318,0.018Z" style="fill:rgb(78,78,78);fill-rule:nonzero;"/>
                                            </g>
                                        </g>
                                    </g>
                                    <g transform="matrix(1,0,0,1,1667.55,2472.54)">
                                        <g id="path4" serif:id="path">
                                            <g id="path13-fill" serif:id="path13 fill">
                                                <path id="path4_fill" d="M2.19,0L2.19,1.87L3.9,1.87L3.9,2.76L2.19,2.76L2.19,6.268C2.19,7.069 2.422,7.532 3.08,7.532C3.314,7.536 3.548,7.509 3.775,7.452L3.828,8.342C3.488,8.46 3.129,8.514 2.769,8.502C2.53,8.517 2.292,8.48 2.069,8.394C1.846,8.308 1.644,8.175 1.478,8.004C1.115,7.519 0.95,6.914 1.015,6.312L1.015,2.751L0,2.751L0,1.861L1.033,1.861L1.033,0.276L2.19,0Z" style="fill:rgb(78,78,78);fill-rule:nonzero;"/>
                                            </g>
                                        </g>
                                    </g>
                                    <g transform="matrix(1,0,0,1,1672.47,2474.29)">
                                        <g id="path5" serif:id="path">
                                            <g id="path14-fill" serif:id="path14 fill">
                                                <path id="path5_fill" d="M1.177,3.579C1.153,3.881 1.195,4.185 1.299,4.469C1.404,4.753 1.569,5.011 1.783,5.225C1.997,5.44 2.256,5.605 2.54,5.709C2.824,5.814 3.128,5.856 3.43,5.831C4.04,5.845 4.647,5.73 5.21,5.493L5.415,6.383C4.724,6.668 3.981,6.805 3.234,6.784C2.798,6.814 2.361,6.749 1.953,6.594C1.545,6.439 1.175,6.198 0.869,5.887C0.563,5.576 0.328,5.202 0.18,4.791C0.031,4.381 -0.026,3.943 0.011,3.508C0.011,1.549 1.177,0 3.082,0C5.219,0 5.753,1.87 5.753,3.063C5.765,3.246 5.765,3.431 5.753,3.615L1.15,3.615L1.177,3.579ZM4.667,2.689C4.701,2.451 4.684,2.208 4.617,1.977C4.55,1.746 4.434,1.533 4.277,1.35C4.12,1.168 3.926,1.022 3.707,0.921C3.489,0.82 3.252,0.767 3.011,0.766C2.522,0.801 2.064,1.018 1.726,1.374C1.388,1.729 1.196,2.198 1.186,2.689L4.667,2.689Z" style="fill:rgb(78,78,78);fill-rule:nonzero;"/>
                                            </g>
                                        </g>
                                    </g>
                                    <g transform="matrix(1,0,0,1,1679.98,2474.24)">
                                        <g id="path6" serif:id="path">
                                            <g id="path15-fill" serif:id="path15 fill">
                                                <path id="path6_fill" d="M0.053,2.192C0.053,1.427 0.053,0.768 0,0.162L1.068,0.162L1.068,1.436L1.122,1.436C1.234,1.043 1.466,0.694 1.785,0.439C2.104,0.184 2.494,0.034 2.902,0.011C3.015,-0.004 3.128,-0.004 3.241,0.011L3.241,1.124C3.105,1.108 2.967,1.108 2.831,1.124C2.427,1.14 2.042,1.302 1.749,1.58C1.456,1.859 1.274,2.235 1.238,2.637C1.204,2.82 1.186,3.004 1.184,3.189L1.184,6.653L0.009,6.653L0.009,2.201L0.053,2.192Z" style="fill:rgb(78,78,78);fill-rule:nonzero;"/>
                                            </g>
                                        </g>
                                    </g>
                                </g>
                            </g>
                            <g id="g1" serif:id="g">
                                <g transform="matrix(1,0,0,1,1673.48,2453.69)">
                                    <g id="path7" serif:id="path">
                                        <g id="path16-fill" serif:id="path16 fill">
                                            <path id="path7_fill" d="M6.031,2.836C6.067,3.434 5.925,4.029 5.622,4.546C5.319,5.063 4.869,5.478 4.329,5.738C3.789,5.999 3.184,6.092 2.591,6.008C1.998,5.923 1.443,5.663 0.998,5.262C0.553,4.861 0.237,4.337 0.091,3.755C-0.055,3.174 -0.025,2.563 0.178,1.999C0.381,1.435 0.747,0.944 1.229,0.589C1.712,0.234 2.289,0.03 2.888,0.005C3.28,-0.017 3.673,0.039 4.044,0.17C4.415,0.301 4.756,0.503 5.048,0.767C5.34,1.03 5.577,1.348 5.746,1.703C5.914,2.058 6.011,2.443 6.031,2.836Z" style="fill:rgb(118,118,119);fill-rule:nonzero;"/>
                                        </g>
                                    </g>
                                </g>
                                <g transform="matrix(1,0,0,1,1643.21,2484.27)">
                                    <g id="path8" serif:id="path">
                                        <g id="path17-fill" serif:id="path17 fill">
                                            <path id="path8_fill" d="M18.696,7.122C10.684,7.122 3.641,4.247 0,0C1.413,3.82 3.962,7.116 7.305,9.444C10.647,11.772 14.623,13.02 18.696,13.02C22.77,13.02 26.745,11.772 30.088,9.444C33.43,7.116 35.98,3.82 37.393,0C33.76,4.247 26.744,7.122 18.696,7.122Z" style="fill:rgb(243,119,38);fill-rule:nonzero;"/>
                                        </g>
                                    </g>
                                </g>
                                <g transform="matrix(1,0,0,1,1643.21,2457.88)">
                                    <g id="path9" serif:id="path">
                                        <g id="path18-fill" serif:id="path18 fill">
                                            <path id="path9_fill" d="M18.696,5.897C26.709,5.897 33.751,8.773 37.393,13.02C35.98,9.199 33.43,5.903 30.088,3.576C26.745,1.248 22.77,0 18.696,0C14.623,0 10.647,1.248 7.305,3.576C3.962,5.903 1.413,9.199 0,13.02C3.641,8.764 10.648,5.897 18.696,5.897Z" style="fill:rgb(243,119,38);fill-rule:nonzero;"/>
                                        </g>
                                    </g>
                                </g>
                                <g transform="matrix(1,0,0,1,1643.28,2496.09)">
                                    <g id="path10" serif:id="path">
                                        <g id="path19-fill" serif:id="path19 fill">
                                            <path id="path10_fill" d="M7.596,3.567C7.643,4.32 7.464,5.07 7.083,5.722C6.703,6.374 6.136,6.897 5.457,7.226C4.777,7.554 4.015,7.673 3.268,7.567C2.52,7.461 1.822,7.135 1.26,6.631C0.699,6.126 0.3,5.466 0.116,4.734C-0.069,4.002 -0.032,3.232 0.223,2.521C0.477,1.81 0.938,1.192 1.545,0.744C2.153,0.296 2.88,0.039 3.634,0.005C4.128,-0.021 4.622,0.05 5.089,0.215C5.555,0.379 5.985,0.634 6.353,0.965C6.721,1.296 7.02,1.696 7.233,2.142C7.446,2.589 7.57,3.073 7.596,3.567Z" style="fill:rgb(158,158,158);fill-rule:nonzero;"/>
                                        </g>
                                    </g>
                                </g>
                                <g transform="matrix(1,0,0,1,1641.87,2458.43)">
                                    <g id="path11" serif:id="path">
                                        <g id="path20-fill" serif:id="path20 fill">
                                            <path id="path11_fill" d="M2.251,4.379C1.819,4.391 1.393,4.275 1.027,4.046C0.661,3.817 0.371,3.484 0.194,3.091C0.016,2.697 -0.041,2.259 0.029,1.833C0.1,1.407 0.294,1.011 0.589,0.696C0.884,0.38 1.266,0.158 1.686,0.059C2.106,-0.041 2.546,-0.014 2.951,0.137C3.356,0.287 3.708,0.553 3.962,0.903C4.216,1.252 4.361,1.669 4.378,2.1C4.395,2.684 4.181,3.25 3.783,3.677C3.385,4.104 2.834,4.356 2.251,4.379Z" style="fill:rgb(97,98,98);fill-rule:nonzero;"/>
                                        </g>
                                    </g>
                                </g>
                            </g>
                        </g>
                    </g>
                </g>
            </g>
        </g>
        <g transform="matrix(7.13905,0,0,7.13905,-1176.57,-1798.85)">
            <text x="169.099px" y="298.496px" style="font-family:'OpenSans-Regular', 'Open Sans';font-size:12px;fill:rgb(78,78,78);">Works with</text>
        </g>
    </g>
</svg>
